<svg xmlns="http://www.w3.org/2000/svg" xmlns:xlink="http://www.w3.org/1999/xlink" width="160" height="120" viewBox="0 0 160 120"><defs><style>.a{fill:#fff;}.b,.c{fill:#008d00;}.c{stroke:#008d00;stroke-linecap:round;stroke-miterlimit:10;stroke-width:0.8px;}.d{clip-path:url(#a);}.e{fill:#f2f2f2;}</style><clipPath id="a"><path class="a" d="M92.414,45.958a9.76,9.76,0,0,1,4.537-8.227,6.58,6.58,0,0,0-4.673-1.94h-33a6.6,6.6,0,0,0-6.6,6.6v22l0,.016a6.506,6.506,0,0,0,.122,1.21c.027.146.073.283.109.424a6.686,6.686,0,0,0,.221.712c.066.172.144.336.224.5s.177.346.278.512a6.45,6.45,0,0,0,.356.54c.08.107.168.207.255.31a6.557,6.557,0,0,0,5.033,2.376h6.76A7.614,7.614,0,0,1,71.232,69H83.941c2.333-3.66,6.784-10.66,7.283-11.516a7.647,7.647,0,0,1,5.516-3.41A9.778,9.778,0,0,1,92.414,45.958Z"/></clipPath></defs><circle class="b" cx="102.194" cy="45.958" r="7.579"/><path class="b" d="M100.331,56.588c-1.748-.971-5.805-.4-7.206,2C92.431,59.779,85.148,71.2,85.148,71.2H71.232a5.516,5.516,0,0,0-2.27.468,7.48,7.48,0,0,0-3.13,2.976c-.113.175-.211.331-.295.457-.045.067-.117.18-.206.322l-.036.059c-.085.134-.183.293-.3.479l-.044.071-.409.669-.013.022c-1.929,3.169-5.912,9.854-7.052,11.9-1.434,2.575,1.066,3.979,2.6,3.958a3.76,3.76,0,0,0,3.02-1.265c.462-.565,5.012-8.8,6.637-11.82a2.826,2.826,0,0,1,2.736-1.841h16.4a4.09,4.09,0,0,0,.484-.062h0a5.375,5.375,0,0,0,.753-.167c.052-.015.1-.032.153-.048a6.368,6.368,0,0,0,.622-.231c.153-.066.284-.144.424-.221.117-.065.238-.123.341-.2a2.025,2.025,0,0,0,.565-.54l.012-.02c.2-.322.437-.7.682-1.108.049-.081.1-.159.147-.243q.377-.627.8-1.343l.111-.19q.441-.757.909-1.572l0,0c.336-.587.679-1.188,1.023-1.793l.007-.013h0c2.023-3.564,4.034-7.2,4.535-7.993C101.471,60.257,102.066,57.551,100.331,56.588Z"/><path class="b" d="M75.2,92.936a1.693,1.693,0,0,1-1.322-.632,14.177,14.177,0,0,1-2.648-4.942c-.591-2.291-.674-6.509,2.756-6.509h19.7S108.229,54.068,109,52.56c1.9-3.7,4.576-5.362,8.008-4.8,2.789.454,2.12,3.607.554,6.769-.815,1.645-14.985,26.448-14.985,27.65v7.969a2.79,2.79,0,0,1-3.1,2.793Z"/><path class="c" d="M63.253,74.978l.041-.068.3-.493.036-.057,0,0c.077-.122.137-.216.187-.293H55.141A6.148,6.148,0,0,1,49,67.923V38.2a6.147,6.147,0,0,1,6.141-6.14H94.859a6.148,6.148,0,0,1,5.9,4.435,8.806,8.806,0,0,1,3.084.031,9.171,9.171,0,0,0-8.979-7.466H55.141A9.167,9.167,0,0,0,46,38.2V67.923a9.168,9.168,0,0,0,9.141,9.141h6.845c.309-.513.6-.988.852-1.407Z"/><path class="a" d="M92.414,45.958a9.76,9.76,0,0,1,4.537-8.227,6.58,6.58,0,0,0-4.673-1.94h-33a6.6,6.6,0,0,0-6.6,6.6v22l0,.016a6.506,6.506,0,0,0,.122,1.21c.027.146.073.283.109.424a6.686,6.686,0,0,0,.221.712c.066.172.144.336.224.5s.177.346.278.512a6.45,6.45,0,0,0,.356.54c.08.107.168.207.255.31a6.557,6.557,0,0,0,5.033,2.376h6.76A7.614,7.614,0,0,1,71.232,69H83.941c2.333-3.66,6.784-10.66,7.283-11.516a7.647,7.647,0,0,1,5.516-3.41A9.778,9.778,0,0,1,92.414,45.958Z"/><g class="d"><path class="e" d="M59.278,35.791a6.6,6.6,0,0,0-6.6,6.6v22a6.583,6.583,0,0,0,4.874,6.343l2.93,2.444L83.491,35.791Z"/></g></svg>