<svg xmlns="http://www.w3.org/2000/svg" width="160" height="120" viewBox="0 0 160 120"><defs><style>.a{fill:#008803;}.b{fill:#fff;}</style></defs><path class="a" d="M97.511,21.466H62.489a3.712,3.712,0,0,0-3.639,3.782v69.5a3.9,3.9,0,0,0,.26,1.4h0q.044.11.093.216c.01.024.021.047.032.07.033.069.067.136.1.2.01.019.022.037.032.056a3.83,3.83,0,0,0,.408.575c.023.027.047.055.071.081q.065.07.132.138l.094.089c.044.04.087.081.132.119.071.06.145.117.22.171.039.027.079.052.118.078s.1.066.153.1.08.046.121.068c.058.031.117.06.177.088l.108.051c.1.04.192.078.291.11l.065.019c.082.025.166.048.251.067l.106.022c.077.014.155.027.234.037.033,0,.067.009.1.012.111.01.222.017.336.017H97.511c.114,0,.225-.007.336-.017.034,0,.068-.008.1-.012.079-.01.157-.023.234-.037l.106-.022c.085-.019.169-.042.251-.067l.065-.019c.1-.032.2-.07.291-.11L99,98.2c.06-.028.119-.057.177-.088.041-.022.081-.045.121-.068s.1-.064.153-.1.079-.051.118-.078c.075-.054.149-.111.22-.171.045-.038.088-.079.132-.119l.094-.089c.045-.045.089-.091.132-.137l.071-.082a3.745,3.745,0,0,0,.407-.574c.011-.019.023-.038.033-.057.037-.066.071-.133.1-.2l.033-.071c.032-.071.063-.143.092-.216h0a3.9,3.9,0,0,0,.26-1.4v-69.5A3.712,3.712,0,0,0,97.511,21.466Z"/><path class="b" d="M81.759,91.713a1.942,1.942,0,0,1-.216.319,1.738,1.738,0,0,1-.129.142,1.99,1.99,0,0,1-1.011.546,2.055,2.055,0,0,1-.4.04,2,2,0,0,1-1.543-3.272A1.993,1.993,0,0,1,80,88.76a2,2,0,0,1,1.414.586c.045.045.089.093.129.142a2.031,2.031,0,0,1,.216.319,2,2,0,0,1,0,1.906Z"/><path class="b" d="M72.759,91.713a1.942,1.942,0,0,1-.216.319,1.738,1.738,0,0,1-.129.142,1.99,1.99,0,0,1-1.011.546,2.055,2.055,0,0,1-.4.04,2,2,0,0,1-1.543-3.272A1.993,1.993,0,0,1,71,88.76a2,2,0,0,1,1.414.586c.045.045.089.093.129.142a2.031,2.031,0,0,1,.216.319,2,2,0,0,1,0,1.906Z"/><path class="b" d="M90.759,91.713a1.942,1.942,0,0,1-.216.319,1.738,1.738,0,0,1-.129.142,1.99,1.99,0,0,1-1.011.546,2.055,2.055,0,0,1-.4.04,2,2,0,0,1-1.543-3.272A1.993,1.993,0,0,1,89,88.76a2,2,0,0,1,1.414.586c.045.045.089.093.129.142a2.031,2.031,0,0,1,.216.319,2,2,0,0,1,0,1.906Z"/><rect class="b" x="63.853" y="33.607" width="32.293" height="49.856"/><path class="a" d="M68.882,38.95a2.643,2.643,0,0,0-.774,1.929l-.037,22.933a2.925,2.925,0,0,0,1.093,2.378,2.182,2.182,0,0,0,2.26.009l-.068.035,18.713-7.669a3.667,3.667,0,0,0,1.8-3.514l.019-13.546a2.9,2.9,0,0,0-2.536-3.237l-18.638-.033A2.616,2.616,0,0,0,68.882,38.95Z"/></svg>