<svg xmlns="http://www.w3.org/2000/svg" width="160" height="120" viewBox="0 0 160 120"><defs><style>.a{fill:#fff;}.b{fill:#008803;}</style></defs><path class="a" d="M51.626,37.68h56.749a4.835,4.835,0,0,1,4.835,4.835V77.484a4.836,4.836,0,0,1-4.836,4.836H51.625a4.835,4.835,0,0,1-4.835-4.835V42.516A4.836,4.836,0,0,1,51.626,37.68Z"/><path class="b" d="M108.374,39.43a3.085,3.085,0,0,1,3.086,3.086V77.484a3.085,3.085,0,0,1-3.086,3.086H51.626a3.085,3.085,0,0,1-3.086-3.086V42.516a3.085,3.085,0,0,1,3.086-3.086h56.748m0-3.5H51.626a6.593,6.593,0,0,0-6.586,6.586V77.484a6.593,6.593,0,0,0,6.586,6.586h56.748a6.593,6.593,0,0,0,6.586-6.586V42.516a6.593,6.593,0,0,0-6.586-6.586Z"/><path class="b" d="M89.53,76.784H53.324a.91.91,0,0,1-.947-.869V44.085a.91.91,0,0,1,.947-.869h22.33a.95.95,0,0,1,.879.546L90.409,75.593A.88.88,0,0,1,89.53,76.784Z"/></svg>