<svg id="MENU" xmlns="http://www.w3.org/2000/svg" width="100" height="80" viewBox="0 0 100 80">
	<style>.cls-1 {fill: #008803;} .cls-2 {fill: #fff;fill-rule: evenodd;}</style>
	<rect class="cls-1" width="100" height="80" rx="6" ry="6"/>
	<path class="cls-2" d="M1223.37,1081.47a35.852,35.852,0,0,1,4.71,3.95,17.055,17.055,0,0,1-7,6.66l0.86,1.52a19.346,19.346,0,0,0,7.25-7.04,34.949,34.949,0,0,1,3.31,4l1.13-1.52a40.8,40.8,0,0,0-3.56-4.04,40.265,40.265,0,0,0,2.86-7.39l-1.52-.6a32.047,32.047,0,0,1-2.49,6.88,33.853,33.853,0,0,0-4.69-3.78Zm15.77-2.46v1.8h10.84v-1.8h-10.84Zm-1.24,10.97v1.8h13.38v-1.8H1237.9Zm25.99,1.18a73.677,73.677,0,0,0,.85-9.33h-7.52v1.62h6.08a58.969,58.969,0,0,1-.82,7.71h-6.81v1.58h11.34v-1.58h-3.12Zm7.15-6.72v1.9h10.31v-1.9h-10.31Z" transform="translate(-1200 -1025)"/>
	<path class="cls-2" d="M1225,1050h23v7h-23v-7Zm27,0h23v7h-23v-7Zm-27-11h23v7h-23v-7Zm27,0h23v7h-23v-7Zm-27,22h23v7h-23v-7Zm27,0h23v7h-23v-7Z" transform="translate(-1200 -1025)"/>
</svg>
