<svg xmlns="http://www.w3.org/2000/svg" width="160" height="120" viewBox="0 0 160 120"><defs><style>.a{fill:#fff;}.a,.b{fill-rule:evenodd;}.b{fill:#008803;}</style></defs><path class="a" d="M144.295,47.47H107.053a18.627,18.627,0,0,0-10.082,2.94c-1.323.834-3.872,2.123-3.86,2.118-13.659-7.56-29.634.493-33.686,8.714-1.041.092-2.078.21-3.122.268C35.065,63.5,10.7,66.71,12.03,72.279c.95,3.988,4.657,8.251,15.835,8.251H144.3a3.69,3.69,0,0,0,3.723-3.657V51.145A3.7,3.7,0,0,0,144.295,47.47Z"/><path class="b" d="M67.659,57.485c-2.022.313-4.067.588-6.111.827,3.982-8.251,18.193-11.044,28.5-7.24a2.046,2.046,0,0,0-.292.147,75.865,75.865,0,0,1-10.761,3.84A106.374,106.374,0,0,1,67.659,57.485Zm80.363-6.34V68.6H126.6V60.334a.932.932,0,0,0-1.862,0V68.6H86.546a163.72,163.72,0,0,0-32.6,3.676h94.076v4.594A3.69,3.69,0,0,1,144.3,80.53H27.865c-11.178,0-14.885-4.263-15.835-8.251C10.7,66.71,35.065,63.5,56.3,61.51c3.957-.221,7.893-.7,11.8-1.3a109.2,109.2,0,0,0,11.636-2.5,79.914,79.914,0,0,0,11.188-3.988,56.213,56.213,0,0,0,6.04-3.308,18.627,18.627,0,0,1,10.082-2.94h37.242A3.7,3.7,0,0,1,148.022,51.145ZM139.639,58.5a2.789,2.789,0,0,0-2.794-2.756h-1.87a2.789,2.789,0,0,0-2.794,2.756v3.675a2.79,2.79,0,0,0,2.794,2.757h1.863a2.789,2.789,0,0,0,2.793-2.757V58.5Z"/><path class="a" d="M139.639,58.5a2.789,2.789,0,0,0-2.794-2.756h-1.87a2.789,2.789,0,0,0-2.794,2.756v3.675a2.79,2.79,0,0,0,2.794,2.757h1.863a2.789,2.789,0,0,0,2.793-2.757V58.5Z"/></svg>