<svg xmlns="http://www.w3.org/2000/svg" width="160" height="120" viewBox="0 0 160 120"><defs><style>.a{fill:#fff;}.b{fill:#008803;}</style></defs><polygon class="a" points="103.914 35.489 103.914 20.489 56.086 20.489 56.086 35.489 56.086 35.489 51 68.489 51.021 68.489 51.021 101.511 108.979 101.511 108.979 68.489 109 68.489 103.914 35.489"/><rect class="b" x="63.029" y="41.489" width="33.943" height="21" rx="2"/><rect class="b" x="56.871" y="91.685" width="27.771" height="3.705"/><path class="b" d="M103.914,35.489v-15H56.086v15h0L51,68.489h.021v33.022h57.958V68.489H109Zm-45.37,3.043h42.912l3.779,26.915H54.765Zm47.392,59.936H54.064V68.489h51.872Z"/><rect class="b" x="56.871" y="76.989" width="12.343" height="4.5"/><rect class="b" x="72.3" y="76.989" width="12.343" height="4.5"/><rect class="b" x="97.744" y="80.931" width="5.862" height="5.079"/><rect class="b" x="56.871" y="84.326" width="12.343" height="4.5"/><rect class="b" x="72.3" y="84.326" width="12.343" height="4.5"/><ellipse class="b" cx="59.698" cy="54.437" rx="1.741" ry="1.692"/><path class="b" d="M61.438,60.769a1.741,1.741,0,0,1-3.481,0c0-.935,1.741-3.692,1.741-3.692S61.438,59.834,61.438,60.769Z"/><path class="b" d="M103.607,72.439c0,3.454-3.714,6.253-8.3,6.253s-8.3-2.8-8.3-6.253Z"/><rect class="a" x="59.128" y="23.532" width="41.743" height="11.823"/><rect class="b" x="60.128" y="24.532" width="39.744" height="9.823"/></svg>