<svg xmlns="http://www.w3.org/2000/svg" width="138" height="70" viewBox="0 0 138 70"><defs><style>.a{fill:#fff;}</style></defs><polygon class="a" points="85.221 15.384 61.878 15.384 60.921 9.068 53.212 8 52.779 11.127 58.153 11.872 61.494 33.913 82.841 33.913 82.841 30.757 64.208 30.757 63.799 28.058 83.299 26.459 85.221 15.384"/><circle class="a" cx="64.433" cy="38.623" r="3.083"/><circle class="a" cx="79.749" cy="38.623" r="3.083"/><path class="a" d="M29.063,63.154a3.76,3.76,0,0,1-1.152,2.92,4.51,4.51,0,0,1-3.164,1.055,12.453,12.453,0,0,1-2.539-.283v-1.69h.1a6.762,6.762,0,0,0,2.177.43,3.331,3.331,0,0,0,2.066-.542q.7-.541.7-2.632V53.633H24.034V52.207h5.029Z"/><path class="a" d="M44.552,66.924H42.179l-4.844-5.918h-3v5.918H32.521V52.207H36.69a6.376,6.376,0,0,1,4.205,1.1,3.661,3.661,0,0,1,1.264,2.9,4.344,4.344,0,0,1-2.978,4.277ZM34.337,53.75v5.762h2.139a4.184,4.184,0,0,0,2.9-.821,3.112,3.112,0,0,0,.879-2.392q0-2.548-3.447-2.549Z"/><path class="a" d="M55.753,66.924h-9.58V52.207h9.58v1.582H47.989v4.287h7.569v1.582H47.989v5.684h7.764Z"/><path class="a" d="M78.321,66.924H76.505V54.287L72.257,62.92h-1l-4.248-8.633V66.924h-1.69V52.207h2.324l4.17,8.467,4.161-8.467h2.343Z"/><path class="a" d="M91.563,66.924l-1.513-4.2H83.663l-1.514,4.2H80.3l5.449-14.717h2.314l5.44,14.717ZM89.5,61.211l-2.647-7.256L84.22,61.211Z"/><path class="a" d="M104.659,66.924h-9.17V52.207h1.817V65.342h7.353Z"/><path class="a" d="M115.792,66.924h-9.17V52.207h1.816V65.342h7.354Z"/></svg>