<svg xmlns="http://www.w3.org/2000/svg" width="138" height="70" viewBox="0 0 100 70">
  <defs>
    <style>
      .cls-2 {
        fill: #fff;
      }

      .cls-2, .cls-3 {
        fill-rule: evenodd;
      }

      .cls-3 {
        fill: #fff;
      }
    </style>
  </defs>
  <path class="cls-2" d="M572.967,1301.28h-5.029v1.43h3.212v8.78c0,1.39-.232,2.27-0.7,2.63a3.335,3.335,0,0,1-2.065.54,6.692,6.692,0,0,1-2.178-.43h-0.1v1.69a12.425,12.425,0,0,0,2.539.29,4.526,4.526,0,0,0,3.164-1.06,3.758,3.758,0,0,0,1.153-2.92v-10.95Zm10.117,8.28a4.335,4.335,0,0,0,2.979-4.27,3.652,3.652,0,0,0-1.265-2.9,6.347,6.347,0,0,0-4.2-1.11h-4.17V1316h1.816v-5.92h3l4.844,5.92h2.373Zm-2.373-6.73q3.447,0,3.447,2.55a3.125,3.125,0,0,1-.879,2.39,4.218,4.218,0,0,1-2.9.82H578.24v-5.76h2.471Zm21.2,4.63h4.717v-1.26h-5.352q-0.615-1.515-.879-2.34h5.293v-1.26h-5.644q-0.215-.825-0.5-2.58l-1.553.14a23.308,23.308,0,0,0,.479,2.44h-7.666v1.26h8.066a22.075,22.075,0,0,0,.889,2.34h-9.512v1.26h10.117a19.66,19.66,0,0,0,1.807,2.82,14.832,14.832,0,0,0-5.225-.84,8.806,8.806,0,0,0-4.429.96,3.056,3.056,0,0,0-1.655,2.8,2.84,2.84,0,0,0,1.738,2.62q1.738,0.9,5.948.9a37.288,37.288,0,0,0,5.82-.36l-0.039-1.4a36.2,36.2,0,0,1-5.742.41,13.725,13.725,0,0,1-4.912-.58,1.784,1.784,0,0,1-1.25-1.59,2.03,2.03,0,0,1,1.079-1.82,9.12,9.12,0,0,1,4.243-.66,11.616,11.616,0,0,1,3.018.42,8.684,8.684,0,0,1,2.626,1.14l1.075-1.08a28.793,28.793,0,0,1-2.559-3.74h0Zm20.317,7.11a4.945,4.945,0,0,0,2.408-4.44,4.656,4.656,0,0,0-1.524-3.66,5.782,5.782,0,0,0-3.984-1.35,28.951,28.951,0,0,0-3.984.42l-4.776.74,0.2,1.32a52.646,52.646,0,0,1,8.614-1.22,4.046,4.046,0,0,1,2.875,1.04,3.567,3.567,0,0,1,1.109,2.74,3.836,3.836,0,0,1-2.139,3.49q-2.139,1.215-7.158,1.35l0.215,1.26Q619.821,1316.11,622.229,1314.57Zm17.027-13.3q-1.572-.24-6.309-0.59l-0.234,1.26a58.543,58.543,0,0,1,6.1.68,29.34,29.34,0,0,1,3.422.72l0.5-1.36C641.463,1301.66,640.3,1301.43,639.256,1301.27Zm-1.348,15.26a2.512,2.512,0,0,0,2.075-.97,3.767,3.767,0,0,0,.777-2.44,6.807,6.807,0,0,0-.484-2.54,8.817,8.817,0,0,0-1.606-2.52,3.674,3.674,0,0,1-1.123-2.01,3.543,3.543,0,0,1,.967-2.11l-1.2-.52a4.491,4.491,0,0,0-1.192,2.84,3.329,3.329,0,0,0,.781,1.77q0.987,1.38,1.333,1.89a5.673,5.673,0,0,1,.62,1.3,4.858,4.858,0,0,1,.274,1.6,2.956,2.956,0,0,1-.381,1.59,1.21,1.21,0,0,1-1.094.61,9.552,9.552,0,0,1-3.838-1.26l-0.527,1.2a9.868,9.868,0,0,0,4.619,1.57h0Zm7.686-6.69a17.46,17.46,0,0,0-2.422-3.42l-1.182.68a19.683,19.683,0,0,1,2.466,3.74,20.786,20.786,0,0,1,1.733,4.22l1.543-.44A23.483,23.483,0,0,0,645.594,1309.84Zm-13.526-2.28a14.7,14.7,0,0,1-1.323,3.7,17.618,17.618,0,0,1-2.231,3.44l1.2,0.8a17.5,17.5,0,0,0,3.838-7.61Zm11.621-7.99a1.987,1.987,0,0,0-.634,1.49,1.945,1.945,0,0,0,.649,1.48,2.2,2.2,0,0,0,1.548.6,2.085,2.085,0,0,0,1.514-.62,2.027,2.027,0,0,0,.625-1.5,1.9,1.9,0,0,0-.64-1.46,2.259,2.259,0,0,0-1.538-.6A2.109,2.109,0,0,0,643.689,1299.57Zm0.542,2.45a1.4,1.4,0,0,1,.982-2.38,1.4,1.4,0,0,1,.991.41,1.321,1.321,0,0,1,.425.97,1.4,1.4,0,0,1-1.416,1.42A1.335,1.335,0,0,1,644.231,1302.02Z" transform="translate(-557 -1249)"/>
  <path class="cls-3" d="M600.269,1270.45c-1.1.17-2.213,0.32-3.325,0.45,2.167-4.49,9.9-6.01,15.506-3.94a1.183,1.183,0,0,0-.159.08,41.3,41.3,0,0,1-5.856,2.09A57.988,57.988,0,0,1,600.269,1270.45ZM644,1267v9.5H632.341V1272a0.507,0.507,0,0,0-1.013,0v4.5H610.547a89.11,89.11,0,0,0-17.74,2H644v2.5a2.008,2.008,0,0,1-2.027,1.99H578.615c-6.083,0-8.1-2.32-8.617-4.49-0.725-3.03,12.535-4.78,24.092-5.86,2.153-.12,4.295-0.38,6.423-0.71a59.445,59.445,0,0,0,6.332-1.36,43.457,43.457,0,0,0,6.088-2.17,30.641,30.641,0,0,0,3.287-1.8,10.133,10.133,0,0,1,5.486-1.6h20.266A2.016,2.016,0,0,1,644,1267Zm-4.562,4a1.518,1.518,0,0,0-1.52-1.5H636.9a1.518,1.518,0,0,0-1.52,1.5v2a1.518,1.518,0,0,0,1.52,1.5h1.014a1.518,1.518,0,0,0,1.52-1.5v-2Z" transform="translate(-557 -1249)"/>
</svg>
