<svg xmlns="http://www.w3.org/2000/svg" width="160" height="120" viewBox="0 0 160 120"><defs><style>.a{fill:#008803;fill-rule:evenodd;}</style></defs><path class="a" d="M99.7,84.448h.124a21.489,21.489,0,0,1,2.474-4.235c.664-.851,1.891-2.454,2.628-3.421l.071-.094.1-.063a3.659,3.659,0,0,0,1.737-3.111V30.148a3.7,3.7,0,0,0-3.7-3.695H56.866a3.7,3.7,0,0,0-3.694,3.7V73.524A3.7,3.7,0,0,0,55.364,76.9l.1.045.08.077A20.573,20.573,0,0,1,58.788,81a10.348,10.348,0,0,1,1.5,3.445h.008L43.854,97.368h4.337l5.523-4.338h52.311l5.784,4.338h4.337ZM56.224,74.166V29.505h47.552V74.166Zm33.094,1.607V81.4H70.683V75.773Zm6.04,8.675L97.09,85.8H62.91l1.718-1.353ZM57.387,90.139l1.851-1.446h41.524l1.851,1.446Zm38.518-57.1H64.1a4.338,4.338,0,0,0-4.338,4.337v24.58h40.484V37.377A4.337,4.337,0,0,0,95.905,33.04Zm0,23.133H64.1V44.607H95.905ZM69.59,64.849l4.338,5.783H64.1a4.338,4.338,0,0,1-4.338-4.338V64.849Zm26.315,0h4.337v1.445a4.338,4.338,0,0,1-4.337,4.338H85.784l4.048-5.783Z"/></svg>