<svg xmlns="http://www.w3.org/2000/svg" width="160" height="120" viewBox="0 0 160 120"><defs><style>.a{fill:#008803;}.b{fill:#fff;}</style></defs><circle class="a" cx="80" cy="62" r="27.77"/><path class="b" d="M73.8,76.59l3.275-.047V57.833l-2.993.048V56.664c4.536-.094,6.267-.327,8.7-1.029l.609.374c-.095,1.73-.187,3.321-.187,5.193V76.543l2.993.047v1.262H73.8Zm6.455-32.6a3.333,3.333,0,0,1,3.321,3.321A3.138,3.138,0,0,1,80.3,50.442a3.174,3.174,0,0,1-3.227-3.226A3.136,3.136,0,0,1,80.257,43.988Z"/></svg>