<svg xmlns="http://www.w3.org/2000/svg" width="90" height="90" viewBox="0 0 90 90">
	<style> .cls-1 { fill: #008803;} .cls-2 {fill: #fff; fill-rule: evenodd;}</style>
	<circle class="cls-1" cx="45" cy="45" r="45"/>
	<path class="cls-2" d="M1941.31,2017H1935v-34l6.31-.22c2.59,0,3.69,1.09,3.69,3.66v26.89C1945,2015.91,1943.9,2017,1941.31,2017Zm-32.25,0v-34.22L1911,1983v-8h18v8l1.94-.22V2017h-21.88Zm16.94-38h-12v4h12v-4Zm-27.31,38c-2.59,0-3.69-1.09-3.69-3.67v-26.89c0-2.57,1.1-3.66,3.69-3.66L1905,1983v34h-6.31Z" transform="translate(-1875 -1951)"/>
</svg>
