<svg xmlns="http://www.w3.org/2000/svg" width="138" height="70" viewBox="0 0 100 70">
  <defs>
    <style>
      .cls-2 {
        fill: #fff;
        fill-rule: evenodd;
      }
    </style>
  </defs>
  <path class="cls-2" d="M793.967,1301.28h-5.029v1.43h3.212v8.78c0,1.39-.232,2.27-0.7,2.63a3.335,3.335,0,0,1-2.065.54,6.692,6.692,0,0,1-2.178-.43h-0.1v1.69a12.425,12.425,0,0,0,2.539.29,4.526,4.526,0,0,0,3.164-1.06,3.758,3.758,0,0,0,1.153-2.92v-10.95Zm10.117,8.28a4.335,4.335,0,0,0,2.979-4.27,3.652,3.652,0,0,0-1.265-2.9,6.347,6.347,0,0,0-4.2-1.11h-4.17V1316h1.816v-5.92h3l4.844,5.92h2.373Zm-2.373-6.73q3.447,0,3.447,2.55a3.125,3.125,0,0,1-.879,2.39,4.218,4.218,0,0,1-2.9.82H799.24v-5.76h2.471Zm23.691,6.01h-5.381v-5.38h-1.5v5.38h-5.381v1.45h5.381v5.38h1.5v-5.38H825.4v-1.45Zm20.088,8.23h1.533v-9.95H841.77l0.937-2.13h5.7v-1.16H847.9v-2.85h-8.037v-1.59h-1.572v1.59H830.52v3.39h1.406v-2.25h14.531v1.71H836.311v1.16h4.834l-0.762,2.13h-3.4v9.99H838.5v-0.79h6.992v0.75Zm-6.992-6.1v-2.7h6.992v2.7H838.5Zm0,1.16h6.992v2.98H838.5v-2.98Zm-4.082,5.09v-9.61h-0.664a30.04,30.04,0,0,0,1.689-4.25l-1.513-.28a20.489,20.489,0,0,1-1.636,4.3,18.354,18.354,0,0,1-2.485,3.86l0.976,0.8a20.653,20.653,0,0,0,2.129-2.92v8.1h1.5Zm31.582-.13h1.5v-14.61h-5.645q0.645-1.32,1.182-2.7l-1.68-.31a21.023,21.023,0,0,1-1,3.01H856.32v14.65h1.514v-1.18H866v1.14Zm-8.164-8.75v-4.63H866v4.63h-8.164Zm0,1.19H866v5.22h-8.164v-5.22Zm-2.344-7.08c-0.683-.6-1.787-1.46-3.31-2.59l-1.016.99q1.884,1.47,3.281,2.74Zm-1.455,4.49c-1.354-1.08-2.441-1.91-3.262-2.47l-0.957,1.06c1.608,1.21,2.683,2.05,3.223,2.53Zm-0.513,6.51a22.4,22.4,0,0,0,1.5-3.35l-1.367-.5a30.243,30.243,0,0,1-1.631,3.47,17.324,17.324,0,0,1-1.884,2.94l1.308,0.92A32.62,32.62,0,0,0,853.522,1313.45Z" transform="translate(-777 -1249)"/>
  <path class="cls-2" d="M847.546,1263.17h-4.293V1290h4.293a2.4,2.4,0,0,0,2.454-2.33V1265.5A2.4,2.4,0,0,0,847.546,1263.17ZM804,1265.5v22.17a2.4,2.4,0,0,0,2.453,2.33h4.294v-26.83h-4.294A2.4,2.4,0,0,0,804,1265.5Zm35.573-4.67h-1.227a6,6,0,0,0-6.133-5.83H821.786a6,6,0,0,0-6.133,5.83h-1.226A1.2,1.2,0,0,0,813.2,1262v28h27.6v-28A1.2,1.2,0,0,0,839.573,1260.83Zm-6.747,18.67H821.173a0.6,0.6,0,0,1-.613-0.58,0.607,0.607,0,0,1,.613-0.59h11.653a0.607,0.607,0,0,1,.614.59A0.6,0.6,0,0,1,832.826,1279.5Zm0-4.67H821.173a0.581,0.581,0,1,1,0-1.16h11.653A0.581,0.581,0,1,1,832.826,1274.83Zm0-4.66H821.173a0.607,0.607,0,0,1-.613-0.59,0.6,0.6,0,0,1,.613-0.58h11.653a0.6,0.6,0,0,1,.614.58A0.607,0.607,0,0,1,832.826,1270.17Zm1.84-9.34a1.2,1.2,0,0,0-1.226,1.17v1.17H820.56V1262a1.2,1.2,0,0,0-1.227-1.17h-1.227a3.6,3.6,0,0,1,3.68-3.5h10.427a3.6,3.6,0,0,1,3.68,3.5h-1.227Z" transform="translate(-777 -1249)"/>
</svg>
