<?xml version="1.0" encoding="utf-8"?>
<!-- Generator: Adobe Illustrator 26.4.1, SVG Export Plug-In . SVG Version: 6.00 Build 0)  -->
<svg version="1.1" id="a" xmlns="http://www.w3.org/2000/svg" xmlns:xlink="http://www.w3.org/1999/xlink" x="0px" y="0px"
	 viewBox="0 0 70 64" style="enable-background:new 0 0 70 64;" xml:space="preserve">
<style type="text/css">
	.st0{fill:#008803;}
</style>
<path class="st0" d="M4.5,22.5L23.2,3.7c0.5-0.5,1.8-1.2,3.4-1.2c1.1-0.1,25,0,25,0c1.7,0.1,3,1.1,3.4,1.8l5.4,11.7
	c1.1,0.8,3.4,2.4,3.3,4.5l-0.4,28c0,1.5-1.2,2.7-2.7,2.7h-1.4V54c0,0,1.8,2.2,6.2,7.5H24.2L6.8,31.2l-2.3-3.5V22.5L4.5,22.5z
	 M8.6,24v1.9l1.9,0.1v-3.6L8.6,24z M11.8,21.2V26L14,26v-6.7L11.8,21.2z M15.3,18.2v7.9l2.4,0.1c0.3,0,0.8,0.1,0.9-0.6v-9.1
	c0-0.6-0.3-1-0.6-0.7L15.3,18.2L15.3,18.2z M25,40.7v2.5h36l0.1-2.5H25L25,40.7z M40.8,16.5l-1-7.6L27.4,9.4l-1.1,7.1H40.8z
	 M27.2,55.2h29.5v-2.5H27.3L27.2,55.2L27.2,55.2z M30.8,32.1c-1.4,0-2.6,1.2-2.6,2.6c0,1.4,1.2,2.5,2.6,2.5c1.4,0,2.5-1.1,2.5-2.5
	C33.3,33.3,32.2,32.1,30.8,32.1z M48.7,24.4H36.7l6,6.7C42.7,31.1,48.7,24.4,48.7,24.4z M57.2,16.5l-3.1-6.9L42.4,8.9l0.9,7.6H57.2
	L57.2,16.5z M54.3,32.1c-1.4,0-2.6,1.2-2.6,2.6c0,1.4,1.2,2.5,2.6,2.5s2.5-1.1,2.5-2.5C56.8,33.3,55.7,32.1,54.3,32.1z"/>
</svg>
