<?xml version="1.0" encoding="utf-8"?>
<!-- Generator: Adobe Illustrator 26.4.1, SVG Export Plug-In . SVG Version: 6.00 Build 0)  -->
<svg version="1.1" id="a" xmlns="http://www.w3.org/2000/svg" xmlns:xlink="http://www.w3.org/1999/xlink" x="0px" y="0px"
	 viewBox="0 0 70 64" style="enable-background:new 0 0 70 64;" xml:space="preserve">
<style type="text/css">
	.st0{fill:#008803;}
	.st1{fill-rule:evenodd;clip-rule:evenodd;fill:#008803;}
</style>
<g>
	<path class="st0" d="M61.5,14.6c0,0-7.2-4.4-16.4-6.6C41.9,7.3,36,9,33.3,8.8c-4-0.2-8.2-2.9-8.2-2.9l-7.8,33c0,0,4.6,2.7,8.9,3
		c2.6,0.1,8.2-1.6,11.2-0.9c9.2,2.2,16.4,6.6,16.4,6.6l-1.9-19.2L61.5,14.6L61.5,14.6z M40.3,34.7l-4.7-5.4L29,32.1l3.6-6.5L28.1,20
		l6.9,1.4l3.9-6.3l0.7,7.3l6.8,1.8l-6.5,3.1L40.3,34.7L40.3,34.7z"/>
	<path class="st1" d="M23.4,2.1c-1.7-0.4-3.4,0.6-3.8,2.3L8.6,51.1c-0.4,1.7,0.6,3.4,2.3,3.8c1.7,0.4,3.4-0.6,3.8-2.3L25.8,5.9
		C26.2,4.2,25.1,2.5,23.4,2.1z"/>
</g>
</svg>
