<?xml version="1.0" encoding="utf-8"?>
<!-- Generator: Adobe Illustrator 26.4.1, SVG Export Plug-In . SVG Version: 6.00 Build 0)  -->
<svg version="1.1" id="a" xmlns="http://www.w3.org/2000/svg" xmlns:xlink="http://www.w3.org/1999/xlink" x="0px" y="0px"
	 viewBox="0 0 70 64" style="enable-background:new 0 0 70 64;" xml:space="preserve">
<style type="text/css">
	.st0{fill:#008803;}
</style>
<path class="st0" d="M56.1,60.5c0.9,0,1.7,0.8,1.7,1.7c0,1-0.8,1.8-1.7,1.8c-1,0-1.8-0.8-1.8-1.8c0-0.4,0.2-0.7,0.4-1
	c-0.4,0-0.7-0.1-1-0.5L33.8,32.6l-5.6-5.5l0.1,0.9c1.5,3.6,1.5,3.6,1.5,3.6l0.6,10.1l9.5,14.5l-4.6,5.3L23.8,45.9l-7.5,17.6H9.6
	l8.6-31.9l-0.8-2.3c0,0-4.1,2.8-9.3,6.5l-2.7-3.3l9.8-9l-2.2-6.2c-0.3-1.7,0.7-2.9,0.7-2.9c0.7-0.9,1.9-1.5,5.4-1.9
	c3.5-0.3,4.4,0.4,5.6,0.9c0,0,1.2,0.5,4.6,5.5l-0.5,0.7c0,0,3.3,4.1,8,9.8l-1.5,1.5l5.8,8.4l6.7-4.7c0.5-0.4,1.3-0.3,1.6,0.3
	l13.4,19.2c0.4,0.5,0.3,1.3-0.3,1.6C56,60.5,56.1,60.5,56.1,60.5L56.1,60.5z M12.9,6.1l-2.4-0.2L10.6,4l2.3,0.1L13.8,0l8.4,0.4
	l0.8,4.1l2.1,0.1l-0.1,1.9C23,6.3,23,6.3,23,6.3c0,2.8-2.3,5.1-5.1,5.1S12.9,8.8,12.9,6.1z M62.8,56.1c0.9,0,1.7,0.7,1.7,1.7
	c0,0.9-0.8,1.7-1.7,1.7c-1,0-1.8-0.8-1.8-1.7C61,56.9,61.8,56.1,62.8,56.1z"/>
</svg>
