<svg xmlns="http://www.w3.org/2000/svg" width="150" height="20" viewBox="0 0 150 20"><defs><style>.a{fill:#fff;}</style></defs><rect class="a" x="28.609" y="7.364" width="2.562" height="7.15"/><rect class="a" x="28.609" y="4.444" width="2.562" height="1.727"/><path class="a" d="M42.635,9.1l-.144-1.979a8.2,8.2,0,0,0-2.979-.357C38.559,7.006,36.3,7.6,36,10.045a3.574,3.574,0,0,0,1.4,3.766,6.423,6.423,0,0,0,4.974.524l.263-2.034-1.991.485-1.727-.537L38.5,10.462l.655-1.37,1.609-.3Z"/><path d="M10.807,5.175a13.868,13.868,0,0,0,.1,1.606,9.378,9.378,0,0,0-3.692-.868c-1.1,0-1.657.349-1.657,1,0,.7.738.842,2.241,1.114,2.356.428,3.548,1.23,3.548,3.355,0,2.1-1.385,3.3-4,3.3a14.891,14.891,0,0,1-4.092-.532,24.079,24.079,0,0,0-.169-2.576,9.134,9.134,0,0,0,3.9,1c1.2,0,1.775-.285,1.775-.984,0-.8-.675-.907-1.893-1.166a7.382,7.382,0,0,1-2.72-.906A2.841,2.841,0,0,1,3.023,7.182C3.023,5.2,4.5,3.944,7.3,3.944a14.1,14.1,0,0,1,3.523.506C10.807,4.708,10.807,4.967,10.807,5.175Z"/><path d="M18.357,7.053v4.261c0,1.049.118,1.671,1.154,1.671a2.62,2.62,0,0,0,1.7-.7V7.053h2.409v7.33h-1.93l-.219-.789a4.484,4.484,0,0,1-2.734,1.087,2.7,2.7,0,0,1-2.2-.971,3.418,3.418,0,0,1-.581-2.305V7.053Z"/><path d="M51.929,11.184v1.463a4.117,4.117,0,0,1-1.722.428c-.557,0-.842-.259-.842-.764,0-.751.751-1.127,2.267-1.127ZM54.2,9.812c0-2.1-.842-3.07-3.536-3.07a6.407,6.407,0,0,0-2.992.674l.414,1.476a4.483,4.483,0,0,1,2.228-.661c1.139,0,1.619.363,1.619,1.179v.506h-.4c-2.927,0-4.546.828-4.546,2.525a2.108,2.108,0,0,0,2.37,2.24,5.914,5.914,0,0,0,3.032-.945,1.5,1.5,0,0,0,.971.945l1.516-1.347a.986.986,0,0,1-.674-1.14Z"/><path d="M28.372,7.05v7.633h3.091V7.05Zm2.422,6.962H29.041V7.72h1.753Z"/><path d="M28.372,4.168V6.444h3.091V4.168Zm2.422,1.608H29.041V4.837h1.753Z"/><path d="M42.519,11.972a4.907,4.907,0,0,1-2.045.487,1.644,1.644,0,0,1-1.207-.4,1.9,1.9,0,0,1-.44-1.38,1.822,1.822,0,0,1,.418-1.329,1.55,1.55,0,0,1,1.138-.38,5.529,5.529,0,0,1,2.137.494l.5.211-.2-2.757L42.6,6.851a8.011,8.011,0,0,0-2.3-.356,4.9,4.9,0,0,0-3.347,1.121,3.977,3.977,0,0,0-1.249,3.046,4.205,4.205,0,0,0,1.156,3.055,4.627,4.627,0,0,0,3.362,1.227,9.11,9.11,0,0,0,2.315-.328l.222-.06.292-2.838Zm-.372,2.054a8.219,8.219,0,0,1-1.92.249,3.974,3.974,0,0,1-2.887-1.031,3.551,3.551,0,0,1-.961-2.582A3.364,3.364,0,0,1,37.3,8.217a4.14,4.14,0,0,1,3.005-1.053,7.133,7.133,0,0,1,1.885.268l.087,1.22A5.717,5.717,0,0,0,40.383,8.3a2.081,2.081,0,0,0-2.226,2.38,2.517,2.517,0,0,0,.637,1.853,2.274,2.274,0,0,0,1.68.6,5.44,5.44,0,0,0,1.8-.331Z"/><path d="M64.683,10.4A2.247,2.247,0,0,0,62.2,8.109a2.709,2.709,0,0,0-2.938,2.627c-.012.779.227,1.356.6,1.391.409.024.936-.948,1.3-2.687a.788.788,0,0,1,1.56.217c-.277,1.391-1.068,4.161-2.891,4.173-1.043,0-2.1-1.223-2.062-3.13a4.26,4.26,0,0,1,4.413-4.054,3.8,3.8,0,0,1,4.066,3.779A6.012,6.012,0,0,1,63.675,15.1a.915.915,0,0,1-1.211-.107.822.822,0,0,1,.18-1.115C64,12.678,64.671,11.815,64.683,10.4Z"/><path d="M78.361,13.327a.8.8,0,0,1-1.115.071l-4.39-3.9c-.479.491-1.751,1.871-2.4,2.494a.781.781,0,0,1-1.115,0,.794.794,0,0,1,0-1.127l2.614-2.675a1.269,1.269,0,0,1,1.751-.048L78.3,12.2A.8.8,0,0,1,78.361,13.327ZM77.306,7.893a1.05,1.05,0,1,1-1.043-1.055A1.045,1.045,0,0,1,77.306,7.893Zm-.576-.011a.468.468,0,0,0-.467-.468.468.468,0,1,0,0,.935A.468.468,0,0,0,76.73,7.882Z"/><path d="M82.133,7.389a.788.788,0,0,1,1.079-.3l1.392.767a.8.8,0,0,1-.78,1.392l-1.391-.78A.789.789,0,0,1,82.133,7.389Zm7.532,1.176a10.2,10.2,0,0,1-1.9,3.934,7.209,7.209,0,0,1-4.341,2.531.862.862,0,0,1-1-.612.81.81,0,0,1,.647-.936,5.84,5.84,0,0,0,3.442-1.931,9.369,9.369,0,0,0,1.667-3.478.78.78,0,0,1,.984-.527A.8.8,0,0,1,89.665,8.565Z"/><path d="M100.441,8.122a.8.8,0,0,1-.791.8H97.719l.3,1.475H99.83a.792.792,0,0,1,0,1.583H98.307l.647,3.034a.773.773,0,0,1-.636.912.783.783,0,0,1-.922-.635l-.661-3.311H94.073a.792.792,0,1,1,0-1.583h2.374l-.3-1.475h-1.8a.8.8,0,1,1,0-1.6h1.5l-.2-.96a.789.789,0,0,1,.635-.923.8.8,0,0,1,.923.647l.252,1.236h2.2A.8.8,0,0,1,100.441,8.122Zm.18-2.268v.66a.593.593,0,0,1-1.186,0v-.66a.593.593,0,1,1,1.186,0Zm1.512,0v.66a.594.594,0,0,1-1.188,0v-.66a.594.594,0,1,1,1.188,0Z"/><path d="M105.665,7.389a.788.788,0,0,1,1.079-.3l1.392.767a.8.8,0,0,1-.78,1.392l-1.391-.78A.789.789,0,0,1,105.665,7.389ZM113.2,8.565A10.2,10.2,0,0,1,111.3,12.5a7.206,7.206,0,0,1-4.341,2.531.863.863,0,0,1-1-.612.81.81,0,0,1,.647-.936,5.843,5.843,0,0,0,3.443-1.931,9.4,9.4,0,0,0,1.667-3.478.779.779,0,0,1,.983-.527A.8.8,0,0,1,113.2,8.565Z"/><path d="M116.873,9.285,118.792,5.9a.795.795,0,0,1,1.379.791l-.18.276h2.866a.78.78,0,0,1,.8.839l-.012,1.848a2.944,2.944,0,0,1-.444,1.883,18.388,18.388,0,0,1-3.538,4.305A.841.841,0,0,1,118.5,15.8a.809.809,0,0,1,.072-1.117,19.9,19.9,0,0,0,3.274-3.922,1.428,1.428,0,0,0,.215-.815V8.529h-2.937l-.876,1.547a.81.81,0,0,1-1.092.288A.8.8,0,0,1,116.873,9.285Zm7.412-3.563v.661a.594.594,0,1,1-1.187,0V5.722a.594.594,0,1,1,1.187,0Zm1.511,0v.661a.594.594,0,1,1-1.188,0V5.722a.594.594,0,1,1,1.188,0Z"/><path d="M128.249,10.244V9.249a.72.72,0,1,1,1.439,0v.995a.72.72,0,1,1-1.439,0Zm2.23,3.826a11.475,11.475,0,0,0,2.423-2.95,1.669,1.669,0,0,0,.157-.779V9.081a.721.721,0,0,1,.719-.72.709.709,0,0,1,.5.2.77.77,0,0,1,.216.516V10.46a2.681,2.681,0,0,1-.36,1.343,14.749,14.749,0,0,1-2.842,3.478.742.742,0,1,1-.817-1.211Zm-.155-3.826V9.249a.72.72,0,1,1,1.44,0v.995a.72.72,0,1,1-1.44,0Z"/><path d="M137.729,15.462a.823.823,0,0,1,.037-1.14,40.622,40.622,0,0,0,4.173-4.546,2.683,2.683,0,0,0,.408-1.847h-3.166a.782.782,0,0,1-.792-.792.79.79,0,0,1,.792-.791h3.861a.862.862,0,0,1,.864.948c0,1.775.036,2.339-.612,3.274l-.587.708L145.6,14.3a.81.81,0,0,1-.048,1.128.825.825,0,0,1-1.139-.048l-2.722-2.927c-.876.995-1.908,2.183-2.843,3.046A.782.782,0,0,1,137.729,15.462Zm7.736-9.043v.659a.594.594,0,0,1-1.188,0V6.419a.594.594,0,1,1,1.188,0Zm1.512,0v.659a.594.594,0,0,1-1.188,0V6.419a.594.594,0,1,1,1.188,0Z"/></svg>