<svg xmlns="http://www.w3.org/2000/svg" width="150" height="20" viewBox="0 0 150 20"><defs><style>.a{fill:#62bb46;}.b{fill:#231f20;}</style></defs><path class="a" d="M81.077,5.83a5.648,5.648,0,0,0-5.82,5.648v.031a5.807,5.807,0,0,0,11.609-.031v-.031A5.6,5.6,0,0,0,81.077,5.83m2.9,5.675a2.894,2.894,0,0,1-2.9,3.014,2.94,2.94,0,0,1-2.93-3.041V11.45a2.893,2.893,0,0,1,2.9-3.013,2.941,2.941,0,0,1,2.931,3.041Z"/><path class="a" d="M66.888,11.626h3.023v1.951a4.794,4.794,0,0,1-2.828.819,4.091,4.091,0,0,1-4.135-4.33v-.039a4.1,4.1,0,0,1,3.921-4.252A5.024,5.024,0,0,1,70.437,7.16l1.892-2.282a7.493,7.493,0,0,0-5.363-1.872,7.007,7.007,0,0,0-7.158,7.06v.039a6.833,6.833,0,0,0,7.178,7.021,8.864,8.864,0,0,0,5.831-2.164V9.032H66.888v2.594"/><path class="b" d="M104.758,12.435h1.7v-2.16h-2.137v-.5h2.371V7.54h-1.065l.231-.792h.6V4.516h-2.137V3.22H101.63v1.3H99.176V6.748h.735l.231.792H98.957V9.771h2.673v.5H99.176v2.16h1.418c-.332.661-.977,1.78-1.637,1.987v2.549A6.866,6.866,0,0,0,101.63,14.4v2.5h2.693V14.494l1.023.676.927-1.785-1.515-.95m-1.418-4.9h-.909l-.245-.792h1.4Z"/><path class="b" d="M107.183,10.462s.288,3.535-1.224,4.371V16.9s3.737.938,3.737-5.933v-.5h.8v6.355h2.356V10.462H113.9V7.813h-4.2v-1.4s3.388-.321,4.2-.916V3.166a43.313,43.313,0,0,1-6.718,1.118v6.178"/><path class="b" d="M129.063,3.292h-3.426c0,1.764-2.071,3.384-2.071,3.384l.013,2.778a5.282,5.282,0,0,0,1.075-.6v.913H126v1.2h-2.046v2.231H126V16.9H128.7V13.205h2.046V10.974H128.7v-1.2h1.35V8.858a5.274,5.274,0,0,0,1.074.6l.013-2.778s-2.07-1.62-2.07-3.384m-3.026,4.247A9.308,9.308,0,0,0,127.35,5.38a9.308,9.308,0,0,0,1.313,2.159Z"/><path class="b" d="M121.257,12.09h1.976V6.676h-1.976V6.214h2.429V3.983h-2.429V3.218h-2.693v.765H116.4V6.214h2.162v.462h-1.756V12.09h1.756v.575H116.4V14.9h2.162v2h2.693v-2h2.429V12.665h-2.429V12.09m-2.651-3.83h2.829v.431h-2.829Zm2.829,2.2h-2.829V9.987h2.829Z"/><path class="b" d="M133.226,15.457l1.676.592a16.912,16.912,0,0,0,.43-3.959l-1.634-.144a10.688,10.688,0,0,1-.472,3.511"/><path class="b" d="M138.374,12.09a24.481,24.481,0,0,0,.162,2.681l1.668-.424a13.84,13.84,0,0,1-.2-2.4l-1.634.144"/><path class="b" d="M148.408,10.974l-1.258-.783a1.981,1.981,0,0,1-.775.965,3.926,3.926,0,0,1-.095-1.3h1.658V4.437h-3.256a2.5,2.5,0,0,0,.535-1.25h-2.594c0,1.2-2.313,1.25-2.313,1.25V9.851h2.611v.611H140.31V10.6l-.405-2.128h-1.8l.079.414h-.68l2.37-3.056-1.646-1.216-1.61,2.174-.589-.468L137.5,4.2l-1.535-1.076-2.48,3.845,1.59,1.526-.37.4h-1.178V11.12H135.5V16.9h2.694V11.12h.422l.074.389h1.625v.581h1.3a4.964,4.964,0,0,1-1.3,1.459v2.579a5.566,5.566,0,0,0,1.484-1.264l.016,2.035h2.062s1.409.109,1.409-1.642V12.933a6.57,6.57,0,0,0,2.657,3.2V13.549a4.606,4.606,0,0,1-.867-.891,2.624,2.624,0,0,0,1.337-1.684M142.6,14.6h-.594a7.451,7.451,0,0,0,.91-1.552V14S142.975,14.6,142.6,14.6Zm3.536-6.371h-4.033V7.748h4.033Zm0-1.772h-4.033V6.021h4.033Z"/><polyline class="b" points="89.174 3.119 89.174 10.347 89.772 13.759 91.689 13.759 92.362 10.307 92.362 3.119 89.174 3.119"/><rect class="b" x="89.174" y="14.771" width="3.188" height="2.181"/><path class="b" d="M56.444,3.914H43.708V6.65H50.85a4.142,4.142,0,0,0-3.566,4.521c0,5.421,7.441,5,7.441,5V13.273s-4.252.293-4.252-2.49c0-3.052,3.165-3.9,4.717-4.133h1.254V3.914"/><rect class="b" x="52.924" y="7.917" width="2.181" height="2.606"/><rect class="b" x="55.553" y="7.917" width="2.181" height="2.606"/><path class="b" d="M41.41,8.482H36.729V5.942c1.628-.311,3.362-.742,3.362-.742L40.1,2.5a38.294,38.294,0,0,1-4.941.909c-2.257.217-4.825.364-4.825.364l-.116,2.741s1.691-.047,3.32-.164V8.482H28.249V11.1h4.826a5.728,5.728,0,0,1-3.579,3v2.836s3.737-.564,5.334-2.679A9.343,9.343,0,0,0,36.438,11.1H41.41V8.482"/><rect class="b" x="16.032" y="7.965" width="2.678" height="3.534"/><rect class="b" x="19.202" y="7.965" width="2.678" height="3.534"/><path class="b" d="M22.665,7.9l-.008,2.973A3.839,3.839,0,0,1,22.077,13a2.75,2.75,0,0,1-2.23,1.5H17.2v2.722h2.633c.007,0,.055,0,.135,0a4.69,4.69,0,0,0,1.371-.208,5.967,5.967,0,0,0,2.8-1.95,6.856,6.856,0,0,0,1.506-4.236V7.9H22.665"/><path class="b" d="M11.9,3.675H7.226a7.39,7.39,0,0,0,.3-1.006H4.558a9.617,9.617,0,0,1-2.966,4.5l.064,3.5A15.808,15.808,0,0,0,5.877,6.352h4.516v2.1H4.752v2.677H9.916A5.733,5.733,0,0,1,6.349,14.1v2.836s3.737-.564,5.334-2.679a8.512,8.512,0,0,0,1.9-5.33V3.675H11.9"/><path class="b" d="M66.986,17.5a7.229,7.229,0,0,1-7.552-7.395v-.039a7.4,7.4,0,0,1,7.532-7.434,7.89,7.89,0,0,1,5.606,1.961l.281.239L70.486,7.687l-.288-.24a4.674,4.674,0,0,0-3.329-1.3,3.728,3.728,0,0,0-3.547,3.878v.039a3.736,3.736,0,0,0,3.761,3.956,4.54,4.54,0,0,0,2.454-.644V12H66.514V8.659h6.677v6.476l-.133.112A9.167,9.167,0,0,1,66.986,17.5m-.02-14.121a6.664,6.664,0,0,0-6.784,6.687v.039a6.436,6.436,0,0,0,6.8,6.647,8.42,8.42,0,0,0,5.457-1.966V9.406H67.262v1.847h3.023v2.515l-.156.112a5.177,5.177,0,0,1-3.046.889,4.458,4.458,0,0,1-4.509-4.7v-.039a4.475,4.475,0,0,1,4.3-4.626,5.239,5.239,0,0,1,3.517,1.236L71.8,4.928A7.078,7.078,0,0,0,66.966,3.379Z"/><path class="b" d="M81.046,17.5a5.944,5.944,0,0,1-6.162-5.991v-.031a6.044,6.044,0,0,1,6.193-6.022,5.945,5.945,0,0,1,6.163,5.991v.031A6.045,6.045,0,0,1,81.046,17.5m.031-11.3a5.3,5.3,0,0,0-5.446,5.274v.031a5.214,5.214,0,0,0,5.415,5.243,5.3,5.3,0,0,0,5.446-5.274v-.031A5.213,5.213,0,0,0,81.077,6.2Zm0,8.688a3.325,3.325,0,0,1-3.3-3.414,3.268,3.268,0,0,1,3.277-3.415,3.325,3.325,0,0,1,3.3,3.415v.028A3.26,3.26,0,0,1,81.075,14.892Zm-.027-6.081a2.529,2.529,0,0,0-2.529,2.639,2.564,2.564,0,0,0,2.556,2.7A2.529,2.529,0,0,0,83.6,11.506v-.028A2.556,2.556,0,0,0,81.048,8.811Z"/></svg>