<svg xmlns="http://www.w3.org/2000/svg" width="150" height="20" viewBox="0 0 150 20"><defs><style>.a{fill:#040000;fill-rule:evenodd;}</style></defs><path class="a" d="M14.821,3.991a10.21,10.21,0,0,1,.149,2.673c-1.27-.408-6.462-1.809-6.237.444.154,1.536,4.837,1.061,6.237,2.823a4.344,4.344,0,0,1,.593,1.185c1.246,5.534-5.253,5.884-9.5,4.606a10.384,10.384,0,0,1-.3-2.969c.812.23,6.4,2.323,6.683,0,.225-1.886-3.542-1.417-5.049-2.23a3.737,3.737,0,0,1-1.634-4.6C6.739,3.16,11.244,3.171,14.821,3.991Z"/><path class="a" d="M35.9,3.545a5.048,5.048,0,0,1,0,2.672c-1.294-.137-2.464.417-3.565,0,.077-.861-.167-2.047.149-2.672Zm-2.822,1.04v.742c.444.3,1.4.083,2.081.145V4.436C34.479,4.5,33.521,4.286,33.077,4.585Z"/><path class="a" d="M48.03,6.812c.251.888.1,2.179.3,3.119-1.5-.228-3.736-1.411-4.751,0A2.81,2.81,0,0,0,44.02,13.2c1.284.926,3.056-.238,4.305-.594a20.855,20.855,0,0,1-.3,3.269c-6.1,2.952-11.122-4.034-7.278-8.02C42.119,6.436,45.407,5.849,48.03,6.812Zm-7.572,3.266c-.877,4.107,2.525,6.479,6.829,5.2-.081-.572.265-.724.148-1.335-1.109.115-2.065.546-3.118.294-2.412-.567-2.595-5.342.3-5.79.9-.138,1.443.213,2.82.3.1-.55-.252-.639-.148-1.19C44.365,6.478,40.976,7.635,40.458,10.078Z"/><path class="a" d="M61.1,14.385c-.255.836-1.077,1.105-1.636,1.633a1.914,1.914,0,0,1-1.186-1.039c-2.526,2.525-8.594.334-5.942-3.267.925-1.254,2.97-1.267,5.347-1.337.728-2.76-3.259-2.062-4.307-1.335-.481-.312-.617-.967-.592-1.785,2-.7,4.918-1.234,6.531-.147C61.485,8.574,59.6,12.338,61.1,14.385Zm-6.239-.6c.72.62,2.434.2,2.97-.3a5.661,5.661,0,0,0-.148-1.633C56.106,11.813,54.288,12.178,54.857,13.79Z"/><path class="a" d="M36.047,7.108v8.91a9.47,9.47,0,0,1-3.713,0V7.255C32.908,6.83,34.8,7.261,36.047,7.108Zm-2.823.744c-.082,1.529.059,4.975,0,7.423a5.052,5.052,0,0,0,1.934,0c.227-2.118-.148-4.894,0-7.423Z"/><path class="a" d="M22.007,7.108c.477,1.4-.274,5.192.445,6.832.99.586,2.165-.014,2.971-.446V7.255a6.216,6.216,0,0,1,2.97,0v8.467c-.829.292-2.594.345-2.672-.595-1.561,1.1-4.285,1.578-5.642.3-1.74-1.639-.506-4.908-.893-7.872v-.3C19.857,6.94,21.1,7.188,22.007,7.108Z"/><path d="M68.679,5.764h3.835V9.5h2.465V5.764h3.953a12.8,12.8,0,0,1-.338,2.8l-.014.05V7.971H75.21v.953h3.37V8.7l.629.425.11-.1A8.16,8.16,0,0,0,81.5,5.576V4.794H74.979V3.935H80.7V2.968H66.753v.967h5.761v.859h-6.3V8.626h2.466Z"/><path d="M80.511,13.172c-.669,2.041-1,2.041-1.544,2.041H75.225c-.56,0-.56-.035-.56-.37v-.238h4.788V9.553H67.606V15.64h2.36V14.605h2.216v.649a1.69,1.69,0,0,0,1.879,1.933H79.14c1.076,0,1.771-.247,2.362-3.664l.025-.147-.951-.4ZM74.665,10.52h2.426v1.023H74.665Zm0,1.994h2.426v1.119H74.665Zm-2.483,1.119H69.966V12.514h2.216Zm0-2.09H69.966V10.52h2.216Z"/><rect x="68.911" y="7.971" width="3.406" height="0.954"/><rect x="75.21" y="6.391" width="3.37" height="0.953"/><rect x="68.911" y="6.391" width="3.406" height="0.953"/><path d="M92.587,7.2a17.888,17.888,0,0,0,4.337-2.846l.065-.055V3.361H85.072v1h7.679A10.554,10.554,0,0,1,89.863,7.06l-.089.055V9.288H82.9v1.035h6.874v4.586c0,.78-.15,1.127-1.048,1.127A10.184,10.184,0,0,1,86.6,15.7l-.232-.055v1.083l.131.042a12.447,12.447,0,0,0,3.624.733,2.18,2.18,0,0,0,2.469-2.492V10.323h6.351V9.288H92.587Z"/><path d="M99.89,6.1h11a20.913,20.913,0,0,1-4.322,4.89,22.37,22.37,0,0,0-2.986-1.722l-.1-.047-.871.612.166.158a19.617,19.617,0,0,1,4.51,6.486l.088.2,3.377-2.156-.153-.166a21.848,21.848,0,0,0-2.531-2.272,26.417,26.417,0,0,0,6.762-5.455l.043-.053V4.885H99.89Z"/><path d="M125.326,9.751l-.134-.028-.467.771.146.1a21.1,21.1,0,0,1,4.15,3.639l.159.194,1.813-2.668-.2-.1A31.181,31.181,0,0,0,125.326,9.751Z"/><path d="M128.092,6.2l.04-.051V4.972h-3.9V2.5h-2.956V4.972h-3.729V6.09H124.5c-1.7,2.789-5.484,5.369-9.357,6.337l-.219.056.464,1.014.146-.032a27.484,27.484,0,0,0,5.74-1.822v5.411h2.918V9.98A17.141,17.141,0,0,0,128.092,6.2Z"/><path d="M132.191,8.305l-.233-.017.319,2.328h12.205V8.467h-4.258C137.214,8.467,134.162,8.448,132.191,8.305Z"/></svg>