<svg xmlns="http://www.w3.org/2000/svg" width="150" height="20" viewBox="0 0 150 20"><defs><style>.a{fill:#fff;}</style></defs><rect class="a" x="74.448" y="6.596" width="4.192" height="11.699"/><rect class="a" x="74.448" y="1.818" width="4.192" height="2.827"/><path class="a" d="M97.4,9.443l-.236-3.237s-3.315-.975-4.875-.585-5.265,1.364-5.752,5.362,1.271,5.306,2.293,6.163,4.435,1.831,8.139.857l.431-3.328-3.258.793-2.827-.878-.683-2.925L91.7,9.423l2.633-.487Z"/><path d="M45.317,3.014a22.746,22.746,0,0,0,.169,2.628,15.345,15.345,0,0,0-6.04-1.42c-1.8,0-2.713.571-2.713,1.632,0,1.144,1.208,1.378,3.668,1.822,3.856.7,5.806,2.013,5.806,5.49,0,3.434-2.267,5.4-6.549,5.4a24.4,24.4,0,0,1-6.695-.87,39.52,39.52,0,0,0-.277-4.217,14.947,14.947,0,0,0,6.38,1.633c1.97,0,2.9-.468,2.9-1.611,0-1.313-1.1-1.484-3.1-1.908a12.082,12.082,0,0,1-4.451-1.483A4.643,4.643,0,0,1,32.58,6.3C32.58,3.057,35,1,39.574,1a23.119,23.119,0,0,1,5.765.827C45.317,2.25,45.317,2.674,45.317,3.014Z"/><path d="M57.672,6.088V13.06c0,1.716.192,2.735,1.888,2.735a4.285,4.285,0,0,0,2.775-1.147V6.088h3.943V18.082H63.12l-.36-1.292a7.328,7.328,0,0,1-4.473,1.78,4.419,4.419,0,0,1-3.6-1.589,5.593,5.593,0,0,1-.952-3.773V6.088Z"/><path d="M112.607,12.847v2.394a6.746,6.746,0,0,1-2.818.7c-.91,0-1.378-.423-1.378-1.25,0-1.229,1.23-1.844,3.71-1.844Zm3.709-2.246c0-3.433-1.377-5.022-5.785-5.022a10.487,10.487,0,0,0-4.9,1.1l.679,2.416a7.335,7.335,0,0,1,3.646-1.082c1.864,0,2.648.594,2.648,1.929v.828h-.656c-4.791,0-7.44,1.355-7.44,4.132,0,2.311,1.422,3.666,3.878,3.666a9.681,9.681,0,0,0,4.962-1.547,2.457,2.457,0,0,0,1.588,1.547l2.481-2.2a1.615,1.615,0,0,1-1.1-1.865Z"/><path d="M74.06,6.082v12.49h5.058V6.082Zm3.964,11.393h-2.87V7.178h2.87Z"/><path d="M74.06,1.366V5.091h5.058V1.366ZM78.024,4h-2.87V2.46h2.87Z"/><path d="M97.209,14.137a8.038,8.038,0,0,1-3.346.8,2.693,2.693,0,0,1-1.976-.66,3.1,3.1,0,0,1-.719-2.258,2.988,2.988,0,0,1,.684-2.175,2.536,2.536,0,0,1,1.862-.622,9.068,9.068,0,0,1,3.5.809l.822.345-.324-4.511-.365-.105a13.1,13.1,0,0,0-3.757-.583A8.017,8.017,0,0,0,88.11,7.009a6.506,6.506,0,0,0-2.043,4.985,6.876,6.876,0,0,0,1.891,5A7.565,7.565,0,0,0,93.458,19a14.98,14.98,0,0,0,3.789-.536l.364-.1.477-4.644ZM96.6,17.5a13.385,13.385,0,0,1-3.142.408,6.5,6.5,0,0,1-4.724-1.687,5.808,5.808,0,0,1-1.571-4.224,5.51,5.51,0,0,1,1.505-4,6.781,6.781,0,0,1,4.919-1.723,11.657,11.657,0,0,1,3.084.438l.143,2a9.328,9.328,0,0,0-3.1-.582c-2.348,0-3.642,1.384-3.642,3.894a4.12,4.12,0,0,0,1.042,3.032,3.722,3.722,0,0,0,2.749.982,8.88,8.88,0,0,0,2.942-.542Z"/></svg>