<svg xmlns="http://www.w3.org/2000/svg" width="176" height="26" viewBox="0 0 175.87 25.41"><defs><style>.cls-1{fill:none;stroke:#000;stroke-miterlimit:10;stroke-width:3px;}.cls-2{fill:#221e1f;}</style></defs><title>App Pay</title><g id="レイヤー_2" data-name="レイヤー 2"><g id="レイヤー_1-2" data-name="レイヤー 1"><path d="M13.19,4.56a23.42,23.42,0,0,0,.18,2.72A16,16,0,0,0,7.11,5.81c-1.86,0-2.81.6-2.81,1.69S5.55,8.93,8.1,9.39c4,.72,6,2.09,6,5.69s-2.35,5.6-6.79,5.6a25.45,25.45,0,0,1-6.93-.9,43.15,43.15,0,0,0-.29-4.37A15.54,15.54,0,0,0,6.72,17.1c2,0,3-.48,3-1.67,0-1.36-1.15-1.54-3.21-2a12.41,12.41,0,0,1-4.61-1.53A4.84,4.84,0,0,1,0,8C0,4.6,2.5,2.47,7.24,2.47a24.07,24.07,0,0,1,6,.86c0,.44,0,.88,0,1.23"/><path d="M23.83,7.74V15c0,1.78.19,2.83,2,2.83a4.5,4.5,0,0,0,2.88-1.18V7.74h4.09V20.25H29.47l-.37-1.42a7.62,7.62,0,0,1-4.64,1.85A4.57,4.57,0,0,1,20.73,19a5.79,5.79,0,0,1-1-3.91V7.74h4.09"/><path d="M80,12.42c0-3.55-1.43-5.2-6-5.2A10.85,10.85,0,0,0,69,8.36l.7,2.5a7.58,7.58,0,0,1,3.78-1.12c1.94,0,2.75.62,2.75,2v.86h-.68c-5,0-7.71,1.4-7.71,4.28,0,2.39,1.47,3.8,4,3.8A10.09,10.09,0,0,0,77,19.08a2.54,2.54,0,0,0,1.64,1.6l2.58-2.29A1.67,1.67,0,0,1,80,16.46v-4m-3.84,2.33v2.48a7.06,7.06,0,0,1-2.92.72c-1,0-1.43-.43-1.43-1.29,0-1.27,1.27-1.91,3.85-1.91Z"/><path d="M40.34,19.54V8.88h3V19.54Zm4.1,1.14V7.74H39.2V20.68Z"/><path d="M40.34,5.58V4h3V5.58Zm4.1,1.13V2.85H39.2V6.71Z"/><path d="M60.77,19.57a14.16,14.16,0,0,1-3.25.42,6.76,6.76,0,0,1-4.9-1.75A6,6,0,0,1,51,13.86a5.69,5.69,0,0,1,1.56-4.14,7,7,0,0,1,5.1-1.79,12.12,12.12,0,0,1,3.2.46L61,10.46a9.45,9.45,0,0,0-3.21-.61c-2.44,0-3.78,1.43-3.78,4A4.26,4.26,0,0,0,55.09,17a3.87,3.87,0,0,0,2.84,1A9.12,9.12,0,0,0,61,17.48l-.22,2.09m.63-3.49a8.21,8.21,0,0,1-3.47.83,2.79,2.79,0,0,1-2-.68,3.19,3.19,0,0,1-.75-2.34,3.11,3.11,0,0,1,.71-2.26A2.63,2.63,0,0,1,57.78,11a9.23,9.23,0,0,1,3.62.84l.86.35-.34-4.67-.38-.11a13.61,13.61,0,0,0-3.89-.6A8.32,8.32,0,0,0,52,8.7a6.75,6.75,0,0,0-2.12,5.16,7.09,7.09,0,0,0,2,5.18,7.84,7.84,0,0,0,5.7,2.09,15.25,15.25,0,0,0,3.92-.56l.38-.1.49-4.82Z"/><line class="cls-1" x1="98.12" x2="98.12" y2="25.06"/><path class="cls-2" d="M125.87,3.58a4.52,4.52,0,0,0,1-3.23,4.46,4.46,0,0,0-3,1.55A4.25,4.25,0,0,0,122.86,5a3.74,3.74,0,0,0,3-1.42"/><path class="cls-2" d="M126.9,5.22c-1.66-.09-3.07,1-3.87,1s-2-.9-3.31-.87a4.89,4.89,0,0,0-4.17,2.53c-1.78,3.07-.47,7.63,1.27,10.13.84,1.24,1.86,2.6,3.19,2.55s1.76-.81,3.3-.81,2,.81,3.32.79,2.25-1.24,3.09-2.48a11,11,0,0,0,1.39-2.85,4.48,4.48,0,0,1-2.7-4.09,4.58,4.58,0,0,1,2.18-3.84,4.75,4.75,0,0,0-3.69-2"/><path class="cls-2" d="M143.45,1.77a5.83,5.83,0,0,1,6.11,6.11,5.89,5.89,0,0,1-6.2,6.13h-4v6.35h-2.88V1.77Zm-4.09,9.82h3.31c2.51,0,3.94-1.36,3.94-3.7s-1.43-3.68-3.92-3.68h-3.33Z"/><path class="cls-2" d="M150.28,16.51c0-2.38,1.82-3.75,5.17-4l3.59-.22v-1c0-1.5-1-2.33-2.76-2.33a2.54,2.54,0,0,0-2.73,1.9H151c.08-2.41,2.35-4.17,5.41-4.17,3.3,0,5.45,1.73,5.45,4.41v9.25h-2.67V18.13h-.06a4.75,4.75,0,0,1-4.25,2.37C152.15,20.5,150.28,18.91,150.28,16.51Zm8.76-1.2v-1l-3.21.2c-1.8.12-2.74.79-2.74,2s1,1.87,2.51,1.87A3.15,3.15,0,0,0,159,15.31Z"/><path class="cls-2" d="M164.39,25.33V23.11c.19,0,.62.05.85.05a2.3,2.3,0,0,0,2.44-1.94l.26-.82L163.05,6.87h3l3.4,11h.06l3.41-11h2.93l-5.06,14.21c-1.16,3.26-2.49,4.33-5.29,4.33A7,7,0,0,1,164.39,25.33Z"/></g></g></svg>