<svg xmlns="http://www.w3.org/2000/svg" width="150" height="20" viewBox="0 0 150 20"><rect x="31.842" y="2.809" width="3.491" height="2.346"/><rect x="36.146" y="2.809" width="3.492" height="2.346"/><path d="M66.187,3.235h3.468s-.008,5.473-.006,7.325c0,1.9-.144,4.12,1.728,4.073a8.387,8.387,0,0,0,2.369-.543v2.268c-.778.589-4.169,1.482-5.992.036-1.328-1.057-1.569-2.913-1.569-4.748C66.185,10.169,66.187,3.235,66.187,3.235Z"/><path d="M60.386,3.233h3.49s.027,3.71,0,5.668c-.042,3.33-.8,6.544-1.85,7.883H58.332a17.593,17.593,0,0,0,2.054-8.1C60.406,7.813,60.386,3.233,60.386,3.233Z"/><path d="M42.066,6.734,55.169,2.8V6.064L50.675,7.475v9.309H47.154V8.41L42.066,10Z"/><path d="M19.073,10.776V7.911H13.324V6.1h5.749V3.233H5.96V6.1H9.9V7.911H5.96v2.865H9.912v1.453c0,1.593.091,2.577.827,3.49a4.307,4.307,0,0,0,3.1,1.366,9.226,9.226,0,0,0,5.045-.926V13.906a7.816,7.816,0,0,1-3.544.753c-1.7-.2-2.013-1.105-2.013-2.86V10.776Z"/><path d="M23.456,16.779c2.654-3.137,2.561-7.758,2.561-9.19V3.235H29.5v4c0,2.829-.043,6.964-2.452,9.541Z"/><path d="M35.333,7.866a41.492,41.492,0,0,0,.316,4.785,6.125,6.125,0,0,0,2.579,4.128H34.411c-.84-.421-1.844-1.643-2.245-4.128a33.621,33.621,0,0,1-.317-4.785V6.132h3.484Z"/><path d="M89.376,4.179a18.759,18.759,0,0,0,.143,2.189,12.843,12.843,0,0,0-5.033-1.181c-1.5,0-2.258.476-2.258,1.359,0,.955,1.005,1.146,3.051,1.518,3.216.581,4.843,1.678,4.843,4.573,0,2.862-1.891,4.5-5.461,4.5a20.411,20.411,0,0,1-5.577-.724,31.989,31.989,0,0,0-.229-3.515,12.439,12.439,0,0,0,5.315,1.361c1.642,0,2.418-.39,2.418-1.343,0-1.1-.918-1.237-2.58-1.589A10.059,10.059,0,0,1,80.3,10.1a3.878,3.878,0,0,1-1.535-3.181c0-2.7,2.014-4.414,5.826-4.414a19.174,19.174,0,0,1,4.8.691C89.376,3.543,89.376,3.9,89.376,4.179Z"/><path d="M97.927,6.739v5.809c0,1.431.157,2.28,1.571,2.28a3.572,3.572,0,0,0,2.313-.955V6.739H105.1V16.792h-2.633l-.3-1.134a6.119,6.119,0,0,1-3.727,1.483,3.684,3.684,0,0,1-3-1.324,4.661,4.661,0,0,1-.793-3.144V6.739Z"/><path d="M140.032,12.372v2a5.683,5.683,0,0,1-2.349.581c-.759,0-1.149-.352-1.149-1.041,0-1.024,1.024-1.536,3.093-1.536Zm3.091-1.871c0-2.86-1.149-4.183-4.821-4.183a8.764,8.764,0,0,0-4.081.915l.564,2.012a6.11,6.11,0,0,1,3.037-.9c1.554,0,2.21.5,2.21,1.606v.689h-.548c-3.991,0-6.2,1.131-6.2,3.444,0,1.923,1.184,3.055,3.23,3.055a8.049,8.049,0,0,0,4.132-1.289,2.057,2.057,0,0,0,1.327,1.289L144.04,15.3a1.341,1.341,0,0,1-.917-1.552Z"/><path d="M110.288,6.737v10.4H114.5V6.737Zm3.3,9.492H111.2V7.648h2.389Z"/><path d="M110.288,2.807V5.912H114.5v-3.1ZM113.589,5H111.2V3.718h2.389Z"/><path d="M128.141,13.446a6.684,6.684,0,0,1-2.79.666,2.244,2.244,0,0,1-1.645-.55,2.6,2.6,0,0,1-.6-1.883,2.493,2.493,0,0,1,.571-1.813,2.118,2.118,0,0,1,1.551-.517,7.529,7.529,0,0,1,2.913.673l.688.288-.273-3.757-.3-.088a10.918,10.918,0,0,0-3.13-.486A6.662,6.662,0,0,0,120.56,7.51a5.4,5.4,0,0,0-1.7,4.15,5.721,5.721,0,0,0,1.577,4.166,6.3,6.3,0,0,0,4.584,1.674,12.341,12.341,0,0,0,3.154-.451l.305-.079.4-3.87Zm-.51,2.8a11.282,11.282,0,0,1-2.614.338,5.413,5.413,0,0,1-3.936-1.4,4.83,4.83,0,0,1-1.313-3.521,4.589,4.589,0,0,1,1.255-3.333,5.648,5.648,0,0,1,4.1-1.436,9.747,9.747,0,0,1,2.57.366l.119,1.662a7.745,7.745,0,0,0-2.584-.484c-1.96,0-3.037,1.152-3.037,3.244a3.441,3.441,0,0,0,.869,2.528,3.119,3.119,0,0,0,2.29.818,7.386,7.386,0,0,0,2.453-.453Z"/></svg>